<?xml version="1.0" encoding="UTF-8"?><svg id="Layer_1" xmlns="http://www.w3.org/2000/svg" width="48" height="48" viewBox="0 0 48 48"><defs><style>.cls-1{fill:#fff;}.cls-2{fill:#373737;}</style></defs><g><path class="cls-2" d="M43.1235,11.2977h-4.8428c-.0113-.1062-.0242-.2121-.0351-.3184-.042-.4044-.0831-.8091-.1236-1.2137-.0234-.2385-.1889-.7987-.0086-.9968,.2584-.284-.1679-.4845-.1278-.7614,.0226-.154,.1491-.1066,.2216-.1972,.0637-.0797-.0841-.4487-.113-.5277-.1249-.3404-.8711-.3492-1.5092-.3146-.638-.0346-1.384-.0258-1.5089,.3146-.0291,.0789-.1766,.4479-.1129,.5277,.0724,.0906,.1987,.0432,.2214,.1972,.0403,.277-.3862,.4774-.1278,.7614,.1803,.198,.0149,.7582-.0088,.9968-.0405,.4046-.0817,.8093-.1231,1.2137-.011,.1063-.0239,.2123-.0351,.3184h-5.0538c-.0113-.1062-.0242-.2121-.0351-.3184-.0418-.4044-.0831-.8091-.1234-1.2137-.0234-.2385-.1891-.7987-.0086-.9968,.2584-.284-.1679-.4845-.1278-.7614,.0227-.154,.1492-.1066,.2216-.1972,.0637-.0797-.0841-.4487-.1129-.5277-.1252-.3404-.8711-.3492-1.5094-.3146-.638-.0346-1.384-.0258-1.5089,.3146-.0291,.0789-.1767,.4479-.113,.5277,.0725,.0906,.1988,.0432,.2214,.1972,.0405,.277-.386,.4774-.1276,.7614,.1803,.198,.0147,.7582-.0088,.9968-.0405,.4046-.0818,.8093-.1231,1.2137-.011,.1063-.0239,.2123-.0351,.3184h-5.0538c-.0113-.1062-.0242-.2121-.0351-.3184-.042-.4044-.0829-.8091-.1234-1.2137-.0235-.2385-.1891-.7987-.0086-.9968,.2583-.284-.168-.4845-.1277-.7614,.0224-.154,.1489-.1066,.2214-.1972,.0636-.0797-.0841-.4487-.113-.5277-.1251-.3404-.8712-.3492-1.5093-.3146-.6379-.0346-1.384-.0258-1.5089,.3146-.0291,.0789-.1767,.4479-.113,.5277,.0724,.0906,.1988,.0432,.2213,.1972,.0403,.277-.3861,.4774-.1276,.7614,.1803,.198,.0148,.7582-.0088,.9968-.0405,.4046-.0817,.8093-.1233,1.2137-.011,.1063-.0239,.2123-.0351,.3184h-5.0536c-.0113-.1062-.0242-.2121-.0351-.3184-.0419-.4044-.083-.8091-.1234-1.2137-.0235-.2385-.1891-.7987-.0086-.9968,.2584-.284-.1679-.4845-.1277-.7614,.0225-.154,.149-.1066,.2215-.1972,.0636-.0797-.084-.4487-.1129-.5277-.1251-.3404-.8712-.3492-1.5095-.3146-.6378-.0346-1.3839-.0258-1.5088,.3146-.0291,.0789-.1767,.4479-.1129,.5277,.0724,.0906,.1987,.0432,.2213,.1972,.0404,.277-.386,.4774-.1276,.7614,.1803,.198,.0149,.7582-.0088,.9968-.0405,.4046-.0817,.8093-.1232,1.2137-.011,.1063-.0239,.2123-.0351,.3184H5.0728c-.2972,0-.5403,.2432-.5403,.5403v2.9533l1.243,.2093v22.3043l-1.243,.2243v2.4144c0,.2323,.1493,.4297,.3561,.5058,.0602,.0357,.125,.0575,.1931,.0575H43.1112c.0657,0,.1281-.021,.1865-.0544,.2119-.0732,.3661-.2728,.3661-.5089v-2.4053l-1.2428-.2241V15.0004l1.2428-.2091v-2.9533c0-.2971-.243-.5403-.5403-.5403Zm-8.9383,5.7252c-.1228,.955-.198,1.9828-.9526,2.7215-.4147,.4052-.7308,1.2158-.7824,1.7728-.0586,.6439-.0398,1.1292,.012,1.6139-.0658-.0059-.1316-.0106-.1974-.0163,.0504-.4795,.0682-.9609,.0102-1.5976-.0432-.4681-.2738-1.1146-.5924-1.5497,.0021-.0001,.0043-.0005,.0065-.0006-.0602-.0823-.1233-.158-.1892-.2224-.2634-.2578-.4427-.5515-.5715-.8644-.0022,.0002-.0047,.0002-.0069,.0003-.2402-.5836-.3014-1.2358-.3812-1.8574-.0621-.4832-.125-.9663-.1876-1.4493h4.0199c-.0626,.483-.1254,.9662-.1875,1.4493Zm-8.4446,0c-.1226,.955-.198,1.9828-.9524,2.7215-.4148,.4052-.731,1.2158-.7826,1.7728-.0437,.4797-.0443,.8711-.0204,1.2401-.0448,0-.0897,.001-.1346,.001,.0239-.3692,.0234-.7609-.0203-1.2411-.0431-.4681-.2737-1.1146-.5923-1.5497,.0022-.0001,.0045-.0005,.0066-.0006-.0603-.0823-.1234-.158-.1894-.2224-.2634-.2578-.4427-.5515-.5715-.8644-.0022,.0002-.0046,.0002-.0069,.0003-.2402-.5836-.3014-1.2358-.3813-1.8574-.0621-.4832-.1249-.9663-.1875-1.4493h4.02c-.0626,.483-.1254,.9662-.1875,1.4493Zm-8.4448,0c-.1226,.955-.1979,1.9828-.9523,2.7215-.4148,.4052-.731,1.2158-.7827,1.7728-.0591,.6498-.0394,1.1381,.0134,1.6275-.068,.0062-.1361,.0136-.2042,.0199,.0545-.496,.0756-.9888,.0156-1.6474-.0431-.4681-.2737-1.1146-.5923-1.5497,.0021-.0001,.0044-.0005,.0066-.0006-.0602-.0823-.1233-.158-.1893-.2224-.2633-.2578-.4427-.5515-.5715-.8644-.0022,.0002-.0047,.0002-.007,.0003-.2402-.5836-.3014-1.2358-.3813-1.8574-.062-.4832-.1249-.9663-.1875-1.4493h4.0199c-.0626,.483-.1255,.9662-.1876,1.4493Z"/><g><rect class="cls-1" x="4.5452" y="13.1018" width="39.1062" height=".4518"/><rect class="cls-1" x="4.5414" y="37.9985" width="39.11" height=".3413"/></g></g><g><path class="cls-1" d="M11.2983,29.4226h1.2982v.6454h-2.0729v-3.2637h.7747v2.6184Z"/><path class="cls-1" d="M14.5921,26.8043l1.0217,3.2637h-.8215l-.2011-.6718h-1.0554l-.2045,.6718h-.6701l1.0459-3.2637h.885Zm-.8728,1.9894h.6915l-.3428-1.1452-.3486,1.1452Z"/><path class="cls-1" d="M18.4042,28.3226v1.7454h-.3492c-.0253-.1228-.0615-.2477-.1089-.3754-.2328,.2837-.5295,.4254-.89,.4254-.4256,0-.7571-.1521-.9939-.4563-.2368-.3047-.3553-.6983-.3553-1.181,0-.5201,.1262-.9375,.3789-1.2531s.5957-.4734,1.0293-.4734c.3635,0,.6568,.102,.8799,.3059,.2232,.2041,.3595,.4757,.4091,.8154l-.727,.0957c-.0591-.3956-.2463-.593-.5619-.593-.2072,0-.3636,.0937-.4697,.2808-.106,.1875-.159,.4547-.159,.8021,0,.3348,.0574,.5909,.1722,.7677,.1147,.1767,.278,.2654,.4901,.2654,.1371,0,.2595-.0447,.3669-.1342,.1077-.0889,.1614-.2317,.1614-.4276h-.6145v-.6098h1.3415Z"/><path class="cls-1" d="M21.3377,27.4258h-1.554v.6698h1.2218v.6141h-1.2218v.7129h1.554v.6454h-2.331v-3.2637h2.331v.6215Z"/><path class="cls-1" d="M22.5667,28.7744v1.2936h-.7698v-3.2637h1.4345c.2647,0,.477,.0304,.637,.0922,.1602,.0612,.2931,.1739,.3982,.3381,.105,.1636,.1579,.3466,.1579,.5469,0,.3919-.1889,.6731-.5667,.8437l.6026,1.4428h-.8449l-.5012-1.2936h-.5477Zm0-1.389v.8317h.4686c.1532,0,.2642-.0106,.3334-.0322,.0695-.021,.1312-.0692,.1856-.1433,.0539-.0741,.0812-.159,.0812-.2545,0-.0909-.0273-.1724-.0812-.244-.0544-.0719-.1133-.1159-.1772-.1327-.0636-.0166-.1832-.025-.3585-.025h-.4519Z"/><path class="cls-1" d="M26.2391,26.8043h1.5206c.2726,0,.4773,.0333,.6145,.1004,.137,.0671,.2504,.1623,.3395,.2866,.0892,.1242,.1338,.2757,.1338,.4542,0,.3613-.1959,.6024-.5879,.7238,.2261,.0511,.396,.1523,.5091,.3035,.1133,.1518,.1699,.317,.1699,.4955,0,.2443-.0927,.4551-.2775,.633-.1849,.1775-.4853,.2667-.9013,.2667h-1.5206v-3.2637Zm.7628,.576v.7153h.5786c.2118,0,.3453-.042,.4005-.126,.0549-.0836,.0824-.1633,.0824-.2403,0-.0824-.0228-.1539-.0681-.2137-.0455-.0597-.0952-.097-.1494-.1122-.0542-.0154-.161-.023-.3205-.023h-.5234Zm0,1.296v.7869h.5868c.2003,0,.342-.0349,.4249-.1057,.0824-.0698,.1238-.1679,.1238-.2938,0-.1053-.0399-.1961-.1192-.2723-.0795-.0765-.2116-.1151-.3963-.1151h-.62Z"/><path class="cls-1" d="M31.76,27.4258h-1.5541v.6698h1.2216v.6141h-1.2216v.7129h1.5541v.6454h-2.3313v-3.2637h2.3313v.6215Z"/><path class="cls-1" d="M34.5502,27.4258h-1.5542v.6698h1.2215v.6141h-1.2215v.7129h1.5542v.6454h-2.3313v-3.2637h2.3313v.6215Z"/><path class="cls-1" d="M35.779,28.7744v1.2936h-.7701v-3.2637h1.4348c.2645,0,.477,.0304,.6373,.0922,.16,.0612,.2928,.1739,.3979,.3381,.1051,.1636,.1576,.3466,.1576,.5469,0,.3919-.1886,.6731-.5663,.8437l.6025,1.4428h-.8449l-.5011-1.2936h-.5477Zm0-1.389v.8317h.4688c.1527,0,.2637-.0106,.3333-.0322,.0695-.021,.1312-.0692,.1852-.1433,.0542-.0741,.0815-.159,.0815-.2545,0-.0909-.0273-.1724-.0815-.244-.054-.0719-.113-.1159-.1769-.1327-.0639-.0166-.1832-.025-.3587-.025h-.4517Z"/><path class="cls-1" d="M14.3577,31.8672c-.1691,.1502-.3573,.3064-.564,.4684l-.3445,.2643c-.168,.1142-.3029,.1715-.4042,.1715-.0153,0-.023-.0085-.023-.0258,0-.0226,.016-.0368,.0481-.0434,.0437-.0078,.0995-.0269,.1673-.0578,.081-.0347,.2504-.1542,.5082-.358l.4775-.3986c.2759-.227,.4242-.3407,.4446-.3407,.0474,0,.0713,.0264,.0713,.0788,0,.021-.0643,.1164-.1926,.2874,.1513-.1274,.2747-.191,.3698-.191,.0999,0,.1499,.0538,.1499,.1617,0,.1399-.0782,.2976-.2347,.4736-.1349,.1527-.2752,.2667-.4216,.3428,.0155,.0038,.0917,.0056,.2288,.0056,.0169,0,.0253,.0104,.0253,.0317,0,.0277-.0504,.0415-.1511,.0415-.0826,0-.1521-.0122-.2088-.0365-.031,.0115-.0624,.0173-.0944,.0173-.1286,0-.1881-.0898-.1789-.2699l-1.0301,1.1591c-.0241,.0283-.0466,.0426-.0673,.0426-.0384,0-.0576-.0317-.0576-.0949,0-.0613,.1315-.2417,.3946-.541l.4003-.4376,.6872-.751Zm-.1481,.7637l-.0347-.1271c-.0195-.0684-.0336-.1023-.0425-.1023-.0255,0-.0382,.0436-.0382,.1311,0,.072,.0255,.1081,.0767,.1081,.0141,0,.027-.0034,.0387-.0098Zm.077-.0272c.1483-.0847,.2862-.2118,.4134-.3818,.1271-.1697,.191-.2826,.191-.3378,0-.0359-.0199-.054-.0594-.054-.0756,0-.1949,.0722-.3582,.2163-.1183,.103-.2249,.2081-.3198,.3162,.0372,0,.0649,.033,.0828,.0982,.0244,.0841,.0413,.1314,.0502,.143Z"/><path class="cls-1" d="M15.7207,31.9206c-.0066-.0423-.0096-.0684-.0096-.0772,0-.0346,.0413-.0887,.1241-.1627,.0828-.0736,.1397-.1105,.1703-.1105,.0296,0,.0444,.0136,.0444,.0403,0,.0232-.0162,.0618-.0481,.1154,.145,0,.2175,.0575,.2175,.1731,0,.0908-.0934,.236-.2802,.4351-.1867,.1988-.2802,.3111-.2802,.3351,0,.023,.0123,.0355,.0361,.0386l.0627-.0021c.0176,0,.0265,.0104,.0265,.0317,0,.0266-.0373,.0397-.1119,.0397-.0948,0-.1424-.0423-.1424-.1271,0-.0836,.0474-.1876,.1422-.3119,.0586-.0784,.1462-.1752,.2627-.2906,.0946-.0938,.142-.1452,.142-.1542,0-.0192-.011-.0288-.0327-.0288-.019,0-.0554,.0074-.1089,.0221-.0532,.0147-.0852,.0267-.0953,.0357-.5969,.5659-.9991,.8488-1.207,.8488-.0154,0-.0232-.0085-.0232-.0258,0-.0226,.0174-.0368,.0521-.0434,.0422-.0078,.0981-.0277,.1673-.0597,.104-.046,.2592-.1555,.466-.3284,.1835-.1524,.3252-.2835,.4254-.3935Z"/><path class="cls-1" d="M16.4713,32.4597c-.064,.0154-.1847,.0743-.3618,.1771-.1565,.0897-.2752,.1346-.3561,.1346-.0153,0-.0231-.0085-.0231-.0258,0-.0237,.0167-.0383,.05-.0434,.0784-.013,.1886-.0608,.331-.1438,.1565-.0892,.2844-.1452,.3832-.168,.0589-.1428,.1809-.2923,.3658-.4486,.1961-.1683,.3636-.2525,.5023-.2525,.1028,0,.1539,.0435,.1539,.131,0,.1143-.1085,.2389-.3252,.3735-.1593,.0999-.3221,.1785-.4889,.235-.018,.0405-.027,.0832-.027,.1278,0,.0664,.0232,.1097,.0699,.13,.0232,.0091,.0672,.015,.1317,.0174,.0467,.0014,.0699,.0122,.0699,.0335,0,.0327-.0792,.049-.2377,.049-.1675,0-.2513-.0725-.2513-.2173,0-.0338,.0044-.0701,.0134-.1097Zm.2541-.1079c.1181-.058,.2426-.1359,.3735-.235,.1746-.1295,.2618-.232,.2618-.3079,0-.0306-.0142-.046-.0424-.046-.0835,0-.1971,.0769-.3407,.2307-.1283,.1398-.2124,.2592-.2522,.3581Z"/><path class="cls-1" d="M18.1808,31.911l-.614,.5081c-.3092,.235-.5263,.3522-.6509,.3522-.0152,0-.023-.0085-.023-.0258,0-.0226,.0129-.0368,.0385-.0434,.0936-.023,.1663-.0488,.2177-.077,.0807-.0421,.2501-.166,.508-.3708,.1169-.0909,.2848-.2358,.5045-.434,.0821-.0858,.141-.1287,.1769-.1287,.0718,0,.1079,.0229,.1079,.0692,0,.0589-.0725,.1814-.2175,.3677,.2797-.2571,.4728-.3852,.5793-.3852,.0359,0,.0687,.0114,.0983,.0336,.0293,.0226,.0441,.0512,.0441,.0858,0,.0514-.0345,.1263-.104,.2253,.2594-.2555,.4635-.3831,.6122-.3831,.0861,0,.129,.0347,.129,.1039,0,.0897-.1053,.2427-.3156,.4582-.2107,.2153-.3158,.345-.3158,.3889,0,.0333,.0225,.0503,.0674,.0509,.045,.001,.0673,.0112,.0673,.032,0,.0255-.0375,.0384-.1124,.0384-.1009,0-.1514-.0443-.1514-.1329,0-.1001,.0917-.2542,.2754-.4633,.1832-.2083,.2752-.3248,.2752-.3488,0-.0155-.0096-.0234-.0288-.0234-.077,0-.2452,.1213-.5045,.3641-.2142,.2003-.3722,.3625-.4735,.4868-.0617,.077-.1072,.1156-.1368,.1156-.05,0-.0751-.0234-.0751-.0695,0-.0477,.1009-.1835,.3024-.4079,.2014-.2246,.3023-.3633,.3023-.4158,0-.0231-.0131-.0346-.0385-.0346-.0669,0-.2189,.1114-.4564,.3349-.2041,.1923-.3477,.3426-.4312,.4504-.0655,.0848-.1225,.127-.1713,.127-.0436,0-.0655-.0192-.0655-.0576,0-.049,.0892-.1846,.2677-.4062l.3119-.385Z"/><path class="cls-1" d="M19.967,32.6542c0,.0344,.0379,.0517,.1133,.0517,.017,0,.0254,.0104,.0254,.0317,0,.025-.0428,.0378-.1279,.0378-.0969,0-.1454-.0461-.1454-.1386,0-.1079,.1431-.3332,.4291-.6754l-.5253,.4292c-.3108,.2539-.5359,.3809-.6758,.3809-.0153,0-.023-.0085-.023-.0258,0-.0237,.0126-.0383,.0385-.0434,.0807-.0155,.1547-.0421,.2213-.0791,.0836-.0458,.2605-.176,.5312-.3898l.5891-.4936c.0256-.0091,.0604-.0136,.104-.0136s.0655,.0251,.0655,.0751c0,.0538-.1035,.1985-.31,.435-.2066,.2363-.3099,.3756-.3099,.418Zm.8508-1.3321c-.0615,0-.0922-.0317-.0922-.0943,0-.053,.0312-.1004,.0943-.1426,.0563-.0386,.1129-.0576,.1692-.0576,.0668,0,.1002,.0365,.1002,.1097,0,.0527-.0333,.0973-.1002,.1348-.0578,.0331-.1148,.0501-.1713,.0501Z"/><path class="cls-1" d="M21.505,32.4096c-.2233,.218-.3876,.3272-.4927,.3272-.0796,0-.1194-.0443-.1194-.1329,0-.1039,.0462-.2209,.1386-.3503l.2482-.2923-.5504,.4559c-.3107,.236-.5287,.3541-.6544,.3541-.0155,0-.0232-.0085-.0232-.025,0-.0219,.0186-.0365,.0558-.0442,.0474-.0091,.1033-.0283,.1675-.0578,.0744-.0347,.2316-.1463,.4716-.3349,.1103-.0861,.2727-.2209,.4869-.4044,.036-.0375,.0936-.0879,.1735-.1518,.0319-.0208,.0617-.031,.0884-.031,.0744,0,.1117,.0243,.1117,.0733,0,.05-.0898,.1743-.2696,.3734-.1795,.1987-.2694,.3407-.2694,.4255,0,.0218,.0115,.0327,.0345,.0327,.0772,0,.2485-.1474,.5141-.4409,.2656-.2938,.4165-.4409,.4524-.4409,.0181,0,.0356,.0094,.053,.028,.0173,.0186,.026,.0378,.026,.0567,0,.0309-.0993,.1606-.2975,.3897-.1985,.2293-.2974,.3757-.2974,.4401,0,.0295,.0217,.0448,.0653,.0461s.0654,.0122,.0654,.033c0,.024-.0321,.0365-.0969,.0365-.1086,0-.1629-.0413-.1629-.1233,0-.0591,.0268-.1399,.0808-.2425Z"/><path class="cls-1" d="M22.918,31.911l-.614,.5081c-.3093,.235-.5261,.3522-.6506,.3522-.0155,0-.023-.0085-.023-.0258,0-.0226,.0127-.0368,.0385-.0434,.0937-.023,.1661-.0488,.2175-.077,.0808-.0421,.2502-.166,.5082-.3708,.1166-.0909,.2849-.2358,.5042-.434,.0821-.0858,.1413-.1287,.1771-.1287,.0718,0,.1077,.0229,.1077,.0692,0,.0589-.0724,.1814-.2174,.3677,.2798-.2571,.473-.3852,.5795-.3852,.0356,0,.0685,.0114,.0981,.0336,.0295,.0226,.0443,.0512,.0443,.0858,0,.0514-.0347,.1263-.104,.2253,.259-.2555,.4632-.3831,.612-.3831,.0861,0,.129,.0347,.129,.1039,0,.0897-.1051,.2427-.3155,.4582-.2105,.2153-.3159,.345-.3159,.3889,0,.0333,.0226,.0503,.0674,.0509,.045,.001,.0676,.0112,.0676,.032,0,.0255-.0378,.0384-.1126,.0384-.1009,0-.1511-.0443-.1511-.1329,0-.1001,.0915-.2542,.2752-.4633,.1835-.2083,.2752-.3248,.2752-.3488,0-.0155-.0096-.0234-.0288-.0234-.077,0-.2453,.1213-.5045,.3641-.2143,.2003-.3721,.3625-.4736,.4868-.0617,.077-.107,.1156-.1366,.1156-.05,0-.0751-.0234-.0751-.0695,0-.0477,.1007-.1835,.3023-.4079,.2012-.2246,.3022-.3633,.3022-.4158,0-.0231-.0129-.0346-.0384-.0346-.0669,0-.2189,.1114-.4562,.3349-.2041,.1923-.348,.3426-.4312,.4504-.0655,.0848-.1227,.127-.1713,.127-.0439,0-.0654-.0192-.0654-.0576,0-.049,.0891-.1846,.2674-.4062l.3118-.385Z"/><path class="cls-1" d="M25.5512,32.3209c-.195,.1513-.3152,.2419-.3599,.2715-.1758,.1191-.3119,.179-.4081,.179-.0155,0-.0229-.008-.0229-.024,0-.0248,.0145-.04,.0441-.0451,.1231-.023,.2618-.0935,.4157-.2115l.7527-.5765c.195-.1497,.3662-.2248,.5141-.2248,.1218,0,.1827,.0458,.1827,.1369,0,.0411-.0122,.0837-.0366,.1287,.0425,.0155,.0636,.0411,.0636,.0768,0,.0102-.1852,.235-.5553,.674h.145c.0169,0,.0254,.0104,.0254,.0317,0,.0301-.0495,.0428-.1483,.0378,.0115,.041,.0174,.0741,.0174,.1001,0,.1385-.1103,.3445-.3311,.6178-.2233,.2783-.3965,.4177-.5198,.4177-.072,0-.1079-.0437-.1079-.131,0-.1498,.1361-.3865,.408-.71l.5122-.6162c-.2476,.2051-.4204,.308-.5178,.308-.1154,0-.1731-.0554-.1731-.1654,0-.0722,.0333-.1638,.1-.2755Zm.5361,.4526c-.1334,.1513-.2743,.3232-.4221,.5158-.2096,.2742-.3141,.4451-.3141,.5121,0,.0202,.0096,.0306,.029,.0306,.0592,0,.1964-.122,.4118-.3658,.2156-.2437,.3233-.4417,.3233-.5927,0-.0336-.0094-.0668-.0279-.1001Zm-.4186-.1137c.1053,0,.2867-.1114,.5438-.334,.2571-.2224,.3858-.3852,.3858-.4878,0-.0376-.0152-.056-.0462-.056-.1131,0-.2956,.1129-.5479,.3388-.252,.2261-.3779,.391-.3779,.4949,0,.0295,.014,.0442,.0424,.0442Z"/><path class="cls-1" d="M27.711,32.4096c-.2232,.218-.3874,.3272-.4928,.3272-.0795,0-.1194-.0443-.1194-.1329,0-.1039,.0462-.2209,.1387-.3503l.2484-.2923-.5507,.4559c-.3107,.236-.5286,.3541-.6544,.3541-.0154,0-.0232-.0085-.0232-.025,0-.0219,.0188-.0365,.0559-.0442,.0475-.0091,.1035-.0283,.1675-.0578,.0744-.0347,.2316-.1463,.4716-.3349,.1103-.0861,.2726-.2209,.4868-.4044,.0359-.0375,.0937-.0879,.1735-.1518,.0321-.0208,.0614-.031,.0884-.031,.0746,0,.1117,.0243,.1117,.0733,0,.05-.0899,.1743-.2694,.3734-.1797,.1987-.2695,.3407-.2695,.4255,0,.0218,.0115,.0327,.0347,.0327,.077,0,.2482-.1474,.5139-.4409,.2656-.2938,.4164-.4409,.4524-.4409,.0179,0,.0356,.0094,.0531,.028,.0173,.0186,.0258,.0378,.0258,.0567,0,.0309-.099,.1606-.2972,.3897-.1984,.2293-.2974,.3757-.2974,.4401,0,.0295,.0216,.0448,.0653,.0461,.0436,.0013,.0654,.0122,.0654,.033,0,.024-.0323,.0365-.0969,.0365-.1087,0-.1629-.0413-.1629-.1233,0-.0591,.027-.1399,.0808-.2425Z"/><path class="cls-1" d="M28.5676,32.3665c-.3425,.2699-.5786,.4049-.7083,.4049-.0155,0-.023-.0085-.023-.0258,0-.0237,.0153-.0383,.0462-.0434,.1205-.0194,.2875-.1125,.5002-.2794l.2486-.1942,.3983-.3176c.1823-.1262,.3381-.1887,.4679-.1887,.0962,0,.1502,.0482,.1617,.1449,.05-.048,.0844-.0716,.1037-.0716,.0425,0,.0639,.0173,.0639,.0522,0,.0448-.0986,.1823-.2954,.4126-.1973,.2299-.2956,.3644-.2956,.4018,0,.0269,.0211,.0405,.0636,.0419,.0423,.0008,.0636,.0122,.0636,.0335,0,.0266-.0437,.0397-.131,.0397-.0861,0-.129-.0379-.129-.1138,0-.0607,.0347-.1468,.104-.2586l-.2386,.2027c-.1169,.0874-.2098,.1313-.2793,.1313-.1105,0-.1656-.0562-.1656-.1679,0-.062,.0148-.1302,.0443-.2044Zm.9569-.5651c-.0761,0-.2326,.1129-.4698,.3396-.2374,.2262-.3561,.3772-.3561,.4529,0,.0351,.0167,.0525,.05,.0525,.0732,0,.2302-.111,.4707-.3328,.2407-.2216,.3609-.3713,.3609-.4487,0-.0423-.0186-.0634-.0556-.0634Z"/><path class="cls-1" d="M30.3715,32.1496l-.4757,.3581c-.2566,.1759-.4448,.2637-.5641,.2637-.0152,0-.0229-.0072-.0229-.0226,0-.0235,.0237-.0394,.0711-.0466,.0539-.0078,.1161-.0309,.1867-.0693,.0848-.0451,.2291-.1433,.4332-.2949,.1487-.1079,.3062-.2272,.4716-.3586,.1911-.2863,.4543-.597,.7893-.9321,.3721-.3726,.6215-.5587,.7487-.5587,.0591,0,.0885,.0312,.0885,.094,0,.1622-.1896,.4204-.569,.7762-.2398,.223-.5007,.4393-.7828,.6484-.0652,.0491-.1466,.1526-.2442,.3109-.1011,.1617-.1518,.2766-.1518,.3436,0,.0319,.0354,.0483,.106,.0483,.0167,0,.025,.0098,.025,.0298,0,.0248-.0336,.0376-.1009,.0376-.1061,0-.1588-.0543-.1588-.1617,0-.1053,.05-.2606,.1502-.466Zm1.6245-1.6014c-.0499,0-.2482,.1958-.594,.5879-.3295,.3749-.539,.6322-.6289,.7723,.8384-.6822,1.2576-1.1251,1.2576-1.3294,0-.0205-.0114-.0307-.0347-.0307Z"/><path class="cls-1" d="M31.3569,32.6542c0,.0344,.0378,.0517,.1131,.0517,.0171,0,.0256,.0104,.0256,.0317,0,.025-.0427,.0378-.1282,.0378-.0969,0-.1452-.0461-.1452-.1386,0-.1079,.1429-.3332,.4291-.6754l-.5254,.4292c-.3107,.2539-.5359,.3809-.6759,.3809-.0153,0-.0231-.0085-.0231-.0258,0-.0237,.0129-.0383,.0387-.0434,.0807-.0155,.1546-.0421,.2213-.0791,.0836-.0458,.2605-.176,.5312-.3898l.5889-.4936c.0259-.0091,.0606-.0136,.1042-.0136s.0655,.0251,.0655,.0751c0,.0538-.1035,.1985-.3103,.435-.2064,.2363-.3097,.3756-.3097,.418Zm.8508-1.3321c-.0617,0-.0925-.0317-.0925-.0943,0-.053,.0315-.1004,.0944-.1426,.0565-.0386,.1129-.0576,.1694-.0576,.0667,0,.1002,.0365,.1002,.1097,0,.0527-.0335,.0973-.1002,.1348-.0577,.0331-.1147,.0501-.1713,.0501Z"/><path class="cls-1" d="M33.0044,31.5145l-.6928,.027c-.0385,0-.0577-.0106-.0577-.0309,0-.0168,.0315-.0296,.0943-.0384,.0885-.0146,.213-.0264,.3733-.0365,.1784-.0104,.3037-.0202,.3757-.029l.2753-.3292c.1473-.1747,.2365-.2618,.2674-.2618,.0385,0,.0577,.0239,.0577,.0732,0,.0525-.1166,.2249-.3503,.5178,.135-.0091,.2464-.0136,.3348-.0136,.0592,0,.0887,.0115,.0887,.0349,0,.0255-.0711,.0428-.2135,.0517l-.2926,.0099-.4293,.5362c-.2709,.3522-.4065,.5621-.4065,.6301,0,.0322,.0221,.0482,.0655,.0488,.0436,.0008,.0655,.0115,.0655,.0328,0,.025-.0283,.0378-.0847,.0378-.1141,0-.1712-.0461-.1712-.1386,0-.0732,.0372-.178,.1116-.3138l.1675-.281-.5699,.4483c-.2372,.1873-.4199,.2811-.5485,.2811-.0153,0-.023-.0085-.023-.0258,0-.0226,.0128-.0368,.0384-.0434,.0437-.0091,.1096-.0314,.1983-.0674,.0861-.0448,.2771-.1833,.5737-.4151,.2193-.1702,.3573-.2811,.4138-.3324,.1013-.0925,.2142-.2168,.3385-.3729Z"/><path class="cls-1" d="M34.0336,32.7099l.1217-.004c.0169,0,.0254,.0104,.0254,.0315,0,.0237-.0301,.0384-.0896,.0437l-.121,.0054-.5367,.6642c-.3219,.3669-.5502,.5507-.6849,.5507-.0643,0-.0962-.0432-.0962-.1294,0-.1913,.1262-.4127,.378-.6642,.252-.2512,.5115-.4068,.778-.4673l.3986-.512-.3153,.281c-.1924,.159-.3231,.2387-.3926,.2387-.0804,0-.121-.057-.121-.1712,0-.0991,.0467-.2152,.1406-.3485l.235-.2966c-.1515,.1348-.3254,.2805-.522,.4372-.1603,.1271-.2685,.2089-.325,.2464-.1555,.1039-.2813,.1558-.3775,.1558-.0154,0-.023-.0085-.023-.0258,0-.0226,.0126-.0368,.0387-.0434,.1615-.04,.3846-.1764,.6694-.4097l.3369-.2763,.2177-.1921c.1215-.105,.1905-.1577,.2058-.1577,.0335,0,.0652,.0114,.0952,.0338,.0303,.0224,.0453,.05,.0453,.0823l-.3042,.3527c-.2027,.2403-.3042,.4004-.3042,.4805,0,.023,.0128,.0346,.0387,.0346,.0772,0,.2649-.143,.5641-.4281,.2193-.2097,.4016-.3964,.5466-.5613,.0294-.0335,.0508-.0501,.0636-.0501,.0242,0,.0498,.0085,.076,.0258,.0263,.0175,.0393,.0375,.0393,.0608,0,.0128-.0082,.028-.025,.046-.2362,.2562-.4953,.5784-.7765,.9667Zm-.2927,.1154c-.2582,.0832-.4922,.2358-.7025,.4571-.21,.2213-.3148,.4034-.3148,.5458,0,.0437,.0153,.0655,.0463,.0655,.1231,0,.447-.3561,.9711-1.0683Z"/></g><g><path class="cls-1" d="M19.0396,34.5973c-.0596-.0536-.1258-.0954-.1928-.1289,.0644,.0002,.1323-.0059,.2013-.0216,.3679-.0863,.2956-.3421,.6441-.4508-.0007,0-.303-.1562-.6667-.072-.245,.048-.3473,.2696-.5566,.3721-.2851-.0807-.5691-.1646-.8523-.2525-.0316,.06-.0632,.1197-.095,.1796,.4507,.0637,.7829,.1679,.9061,.2107,.1274,.1931,.1128,.4387,.3046,.6,.2787,.2507,.6427,.2533,.6421,.2529-.2523-.2928-.0586-.4427-.3348-.6895Z"/><path class="cls-1" d="M22.1475,35.2205c-.364-.2403-.8851-.2059-.886-.2065,.2934,.1988,.1775,.454,.4754,.641,.3689,.2467,.8529,.2429,.8522,.2424-.1365-.2083-.0761-.4363-.4416-.6769Z"/><path class="cls-1" d="M21.115,35.0574c-.3568-.251-.8794-.2324-.8803-.2329,.2879,.2073,.1644,.459,.4567,.6551,.3618,.2579,.8463,.268,.8455,.2675-.1303-.2121-.0632-.4384-.4219-.6897Z"/><path class="cls-1" d="M20.083,34.8659c-.3497-.2616-.8731-.2586-.8741-.2592,.282,.216,.1509,.464,.4378,.6684,.3544,.2686,.8388,.2936,.838,.2931-.124-.2163-.0502-.4403-.4018-.7023Z"/><path class="cls-1" d="M22.1867,34.9551c.4153-.1348,.415-.3735,.5944-.5418-.0009,.0003-.4431-.1185-.8537,.011-.3307,.0919-.3024,.37-.6435,.466-.001,.0005,.4862,.1993,.9028,.0647Z"/><path class="cls-1" d="M21.7719,34.2761c-.0008,.0002-.44-.1318-.8547-.0146-.3336,.0818-.3134,.3607-.6577,.4468-.001,.0002,.4807,.2136,.9018,.0911,.4194-.122,.426-.3604,.6105-.5234Z"/><path class="cls-1" d="M19.2372,34.4916c-.0011,.0003,.4746,.2282,.8998,.1188,.4231-.1097,.4369-.3479,.6265-.5049-.0008,.0002-.4363-.1451-.8549-.0403-.3362,.072-.3242,.3511-.6714,.4265Z"/><path class="cls-1" d="M25.3079,35.6851c.5265,.0189,.9505-.3002,.9494-.3002s-.4199-.3226-.933-.341c-.3729-.013-.7753,.2554-.9491,.2747,.2248,.0642,.5088,.3516,.9328,.3665Z"/><path class="cls-1" d="M27.1533,36.533c.0034-.0069-.0502-.027-.15-.0586-.05-.0157-.1113-.0344-.183-.0556-.0722-.0195-.1559-.0376-.2478-.0602-.3684-.0864-.8879-.1753-1.4633-.2496-.5752-.0751-1.0968-.1305-1.4726-.1755-.0118-.0014-.0231-.0026-.0348-.0038-.0925-.1855-.09-.3882-.4183-.5911-.3706-.2293-.8896-.1793-.8905-.1799,.2988,.19,.1907,.4486,.4934,.6266,.3,.1883,.6695,.215,.8046,.2169,.011,.0018,.0217,.0035,.033,.0054,.3744,.0642,.8936,.1314,1.4661,.2064,.5725,.074,1.0878,.15,1.458,.2173,.0925,.0173,.1771,.0304,.2505,.0445,.0728,.0154,.1359,.0283,.188,.0379,.1039,.0189,.1635,.0261,.1667,.0192Z"/><path class="cls-1" d="M25.8588,36.0365c-.1477-.0112-.2873-.0248-.4193-.0333-.1318-.008-.2546-.016-.3669-.0237-.056-.0035-.1093-.0069-.1598-.0104-.0467-.0016-.0905-.0034-.1321-.005-.1436-.1782-.1757-.3886-.5533-.5599-.412-.1873-.9078-.0794-.9089-.08,.3329,.1566,.2844,.4273,.6197,.5704,.3186,.1465,.6665,.1396,.8132,.127,.0047,.0005,.0092,.0008,.014,.0014,.0443,.0042,.0916,.0088,.1418,.0135,.0499,.0058,.1028,.0117,.1582,.0178,.111,.0117,.2325,.0239,.3631,.0363,.1306,.0123,.2705,.0293,.4177,.0432,.2947,.0295,.6197,.0528,.9599,.0832,.1704,.0136,.3372,.0255,.4981,.0359,.1613,.009,.3163,.0229,.4646,.0312,.2961,.0194,.5642,.0275,.789,.0392,.4499,.0189,.7303,.016,.7321,.0018,.0021-.0149-.2752-.0387-.7225-.0767-.2233-.0211-.4905-.0371-.7861-.0618-.1479-.0112-.3027-.027-.4637-.0373-.1611-.0112-.3277-.0239-.4981-.0381-.3406-.0304-.6658-.0507-.961-.0748Z"/><path class="cls-1" d="M25.4433,35.7946c-.0601,.0018-.117,.0037-.1701,.005-.106,.0034-.1975,.0061-.2723,.009-.027,.0011-.0512,.0024-.0737,.0032,.0111,.012,.0222,.0239,.0334,.0359,.0137,.0008,.0274,.0013,.0426,.0021,.0747,.0035,.1666,.0066,.2728,.0091,.0532,.001,.1102,.0021,.1705,.0029,.06,.0021,.1238,.0042,.1906,.0061,.5334,.0098,1.272,.024,2.085,.0371,.8135,.0135,1.5499,.0259,2.0841,.0287,.2674,.0014,.4841-.0005,.6341-.0021,.1502-.0032,.2342-.0091,.236-.0165,.0014-.0074-.0797-.0155-.2277-.025-.1479-.0099-.3625-.0216-.6288-.0315-.5324-.0218-1.2706-.0456-2.0888-.0592-.8185-.013-1.5588-.0152-2.0961-.0061-.0672,.0006-.1311,.001-.1915,.0014Z"/><path class="cls-1" d="M23.6706,34.5134c-.1604-.021-.4551-.0402-.733,.0568-.3274,.1017-.2908,.3786-.629,.4849-.001,.0007,.4917,.1848,.9042,.0378,.3694-.1321,.4007-.3386,.5302-.5046,.0156,.0014,.0311,.0029,.0473,.0043,.092,.0077,.1927,.0155,.3007,.0239,.1083,.0085,.2238,.0091,.3454,.0133,.2435,.0051,.5113,.004,.7914-.0096,.0351-.0016,.0698-.003,.1045-.005,.0344-.0024,.0687-.0051,.1028-.0075,.068-.0053,.135-.0109,.2008-.0165,.0658-.0048,.13-.0131,.1929-.0208,.0628-.0082,.1242-.0159,.1842-.0239,.06-.0074,.1178-.0174,.1741-.0277,.0561-.0099,.1104-.0199,.1631-.0296,.1054-.0179,.2016-.0427,.2891-.0642,.0872-.0226,.1671-.0402,.2346-.0626,.0678-.0216,.1256-.0408,.1727-.0573,.0938-.0331,.1438-.0549,.1407-.0616-.0032-.007-.0591,.0018-.1572,.0226-.0491,.0101-.1087,.0235-.1777,.0397-.0688,.0166-.1494,.029-.237,.0467-.088,.0165-.1836,.0365-.2887,.0506-.0522,.0079-.1062,.016-.1618,.024-.0556,.0085-.1129,.017-.1725,.0227-.0592,.0066-.1198,.0133-.182,.0197-.062,.007-.1253,.0141-.1904,.0182-.0648,.0048-.131,.0098-.1981,.0142-.0335,.0026-.0674,.005-.1012,.0074-.0343,.0016-.0687,.0032-.1033,.0047-.2766,.0136-.5415,.0174-.7828,.0176-.1208-.0013-.2356,.0013-.343-.0037-.1074-.003-.2075-.0067-.2989-.0106-.0427-.0014-.0832-.0029-.122-.004Z"/><path class="cls-1" d="M28.2481,34.3507c-.0566,.0114-.1164,.0203-.1778,.0312-.1228,.0208-.2543,.0427-.393,.0648-.0693,.0112-.1404,.0226-.213,.0339-.0363,.0056-.0729,.0117-.11,.0173-.0374,.0046-.075,.0094-.113,.0141-.1522,.0189-.3099,.0376-.4716,.0554-.3228,.0399-.634,.0592-.9166,.0791-.1413,.009-.276,.0195-.4017,.0247-.1258,.0051-.243,.0093-.3501,.0125-.0537,.0019-.1049,.0034-.1532,.0048-.0283,.0005-.0553,.0005-.0817,.0008-.1241-.0285-.4695-.0916-.8155,.004-.3448,.0836-.3513,.3581-.7079,.4446-.0011,.0002,.465,.2078,.9031,.0852,.3935-.111,.4565-.3141,.6129-.4715,.029,.0014,.0588,.0032,.0901,.0046,.0489,.001,.1005,.0019,.1547,.0027,.1085,.0006,.2273,.001,.3549,.0005,.1275-.0014,.2627-.0088,.4051-.0152,.2849-.0147,.598-.0312,.9238-.0714,.163-.0187,.3219-.0383,.4748-.058,.0383-.0051,.0762-.0104,.1137-.0155,.0373-.0062,.0743-.0125,.1106-.019,.073-.0127,.1444-.0251,.2139-.0378,.139-.0256,.2706-.0509,.3937-.0751,.0613-.0128,.121-.0237,.1774-.0371,.0562-.0141,.1102-.0277,.1617-.0408,.4108-.1057,.6587-.1846,.6534-.1982-.0054-.0139-.2622,.0394-.6761,.1257-.0516,.011-.1057,.0223-.1623,.0338Z"/><path class="cls-1" d="M29.6291,34.5891c-.5038,.0969-1.2057,.2129-1.993,.2758-.7864,.0644-1.507,.0648-2.0255,.045-.0651-.0018-.1269-.0034-.1854-.0054-.0585-.003-.1138-.0059-.1655-.009-.1037-.0054-.1927-.0099-.2656-.0133-.0146-.0008-.028-.0011-.0411-.0018-.0118,.0109-.0235,.0218-.0352,.0327,.022,.0032,.0452,.0066,.0714,.0101,.0723,.0096,.1611,.0202,.2643,.0314,.0517,.0051,.1069,.0109,.1654,.017,.0592,.0042,.1214,.0085,.1866,.0128,.5239,.0394,1.2512,.0508,2.0477-.0144,.7965-.064,1.5032-.1937,2.0032-.3095,.2507-.057,.4499-.1117,.5862-.1526,.1362-.0403,.2096-.0666,.2065-.0735-.0033-.0066-.0827,.0066-.2238,.0351-.1405,.0295-.344,.0712-.5961,.1196Z"/></g><rect class="cls-1" x="12.6611" y="25.1666" width="22.8705" height=".1002"/></svg>