<?xml version="1.0" encoding="UTF-8"?><svg id="Layer_1" xmlns="http://www.w3.org/2000/svg" width="48" height="48" viewBox="0 0 48 48"><path d="M44.6416,37.2921s-3.2708,.8116-8.6783,.9072l.1074-.0477s4.7152-.1194,8.0337-.8595h.5371Z"/><path d="M43.7463,37.0176s-4.5241,.9908-12.5578,.8356l.0597-.0358s6.2789,.2268,12.319-.8953l.1791,.0955Z"/><path d="M24.094,10.4856s-1.5121,.756-3.6209,.3422c0,0-.0796-.0876-.2308-.0398,0,0-.6526-.191-1.0425-.6685,0,0-.374-.5571,.2626-.7082,0,0,.5094,.6206,.955,.7719,0,0,1.0982,.0955,2.2282-.0717,0,0,1.2176-.1353,1.2813-.5172,0,0,.0158-.0557,.1033-.0159,0,0,.2308-.0079,.0638,.9072Z"/><path d="M23.3539,9.8488s-1.0903,.0557-2.0373,.2308c0,0-.1272-.0956-.0397-.2547,0,0,.9469-.5728,1.9418-.183,0,0,.0955,.0795,.1353,.2069Z"/><path d="M23.5846,9.435s-.1353-.1829-.2149-.1989c0,0-1.5756-.4377-2.6181,.6049,0,0-.2865,.2387-.4218,.167,0,0-.4775-.2784-.5968-.5014,0,0-.1115-.6048-.0239-.8993,0,0,.1274-.2387,.2866-.2626,0,0,.1193-.0238,.1989,.0319l-.0716,.0556s.2466-.0159,.3182,.8038c0,0,.78-1.0743,2.7615-.4855,0,0,.3581,.1831,.382,.6844Z"/><path d="M19.8365,10.8118s.3819,.016,.4615,.1194c0,0,.1115,.1354,.191,.0637,0,0,.1034,.0955,.1034,.39,0,0,.0239,.35,.0717,.4138,0,0-.382,.2388-.4616,.0876,0,0-.1114-.5013-.3183-.764,0,0-.0955-.2068-.0477-.3104Z"/><path d="M20.8391,11.1619s1.3848,.2467,2.9365-.2944l.1591,.0239s.008,.0795-.0637,.1034c0,0-.35,.2308-1.2573,.3262,0,0,.0796,.1194,.0716,.2865,0,0-.0637,.5253-.0556,.597,0,0-.3581,.2785-.3821-.008,0,0-.0079-.3421-.0637-.4297,0,0-.4058,.1273-.5411,.0955,0,0,.1354,1.2415,1.1619,1.8224,0,0,.0477,.0716-.1115,.0637,0,0-1.4961-.2865-1.7507-1.4086,0,0-.1354-.8993-.1035-1.1778Z"/><path d="M20.3617,12.3556s.0636-.0955,.1193,.0239c0,0,.5412,.8436,1.1381,1.0823l-.0557,.0318s-.1751-.0796-.3422-.0716c0,0-.8117-.3741-.8594-1.0665Z"/><path d="M24.1815,11.1938s-.1033,1.5916-.3739,2.1248c0,0-.0479,.1273,.1034,.0717,0,0,1.1142-1.1301,.4217-2.2044,0,0-.1194-.1273-.1512,.0079Z"/><path d="M24.3406,10.8039s.0638,.2627,.1751,.374c0,0,.3263,.183,.2228,1.1381,0,0-.0557,.4296,.0318,.7798l.2149,.4059s-.1511-.9311-.0398-1.536c0,0,.0875-.732-.2945-.9231,0,0-.191-.0637-.3104-.2387Z"/><path d="M24.9455,10.3582s-.0796,.0159-.0558,.1353c0,0,.6129,.4138,.6367,.5809,0,0,.0478,.0956-.1273,.4059,0,0-.573,.8595-.2706,2.0771,0,0,.1751,.191,.183,.2626,0,0-.0955-1.2732,.6287-2.3317,0,0,.0717-.0557,0-.2228,0,0-.3103-.6207-.9947-.9072Z"/><path d="M20.3617,13.1594s-.0479,.3105,1.0344,.5412c0,0,.8197,.1592,1.2097,.3262,0,0,.2228,.1035,.5253,.0159,0,0,1.0981-.2228,1.5199-.0079,0,0,.4059,.1035,.6287,.0637,0,0,.1194,.0399-.0716,.1194,0,0-.4059,.1512-.7481,.0954,0,0-.7799-.0636-1.4165,.1593,0,0-.2467,.1672-.6526,.0239,0,0-1.1698-.3104-1.4564-.3422,0,0-.8754-.1115-.8515-.7162,0,0,.0318-.175,.2786-.2785Z"/><path d="M23.2981,8.4164s.1193-.0238,.1592,.0796c0,0,.2068,.3183,.4298,.3263,0,0,.0876-.1035,.4695-.1115,0,0,.5491-.0239,.8117-.183,0,0,.3343-.1433,.6445-.1194,0,0,.183,.0001,.2228-.1034,0,0-.0317-.3024,1.2893-.0955l.016-.0716s.2148-.0398,.3023,0c0,0,.183-.0876,.2387-.0876,0,0-1.6314-.3262-1.9179,.0079,0,0-1.7905-.0079-2.3636,.1354,0,0-.2626,.0556-.3023,.2227Z"/><path d="M19.7409,12.4352s.2627,.1115,.3582,.0876c0,0-.6287,1.894-1.1778,2.7932,0,0-.3262,.6765,.0079,1.2414,0,0,.39,.589,.3821,.7163,0,0,.6206,.175,1.2732-.0637,0,0,1.0584-.6685,1.536-1.2415,0,0,.1114-.0955,.1512-.0478,0,0,.3103-.2148,.3421-.3899,0,0,.1273-.008,.1273,.1354,0,0-.0079,.2466-.382,.5492,0,0-1.3927,1.4642-1.8304,2.3476,0,0,.7162,.9867,1.146,1.1141,0,0,.1034,.0795-.0478,.0955,0,0-1.4165-.1911-2.5703-1.0744,0,0-.0796-.0159,0,.1273,0,0,.9549,1.2733,1.7825,1.5678,0,0,.1591,.3104,.3104,.3581,0,0-.2705,.2068-.4616,.1194,0,0-.0875-.0318-.2148,0,0,0-.2706,.0557-.5252-.2945,0,0-.4378-.1114-.7321-.2944,0,0,.175,.7878,.4297,.8913l.0238,.183s.2786-.0557,.3741-.0239c0,0-.0318,.1193-.1354,.1909,0,0-.8514,.5252-.8435,.1672,0,0,.0159-.1353-.0956-.3183,0,0-1.0265-2.3875-.5968-2.7535,0,0-.0637-.4537-.1989-.5014,0,0-.1194-.0876,0-.183,0,0-.9549-.9629-.0398-2.682,0,0,.9232-1.4801,1.0186-1.878,0,0,.3024-.7401,.5889-.939Z"/><path d="M30.0943,10.6765s-.3342-.0557-.4854,.6764c0,0-.1354,.4377-.016,.6367,0,0,.2069,.4536,.5571,.2865,0,0,.0795-.3183,.1591-.4138,0,0-.2068-.8436-.183-1.1062,0,0,.016-.0637-.0318-.0795Z"/><path d="M31.7973,9.8726s-.939,.4935-1.2654,1.5678c0,0-.4854-.4854,.0637-1.3528,0,0,.4217-.7481,.8595-.6923,0,0,.2228,.016,.3422,.4774Z"/><path d="M32.4897,10.4935s-.3661-.756-1.0744-.1353c0,0-.9151,.8276-1.2255,2.4033,0,0-.0237,.2545,.1354,.2545,0,0,.3183-.1034,.6923-.8355,0,0,.7162-1.3528,1.4722-1.6871Z"/><path d="M31.6382,12.1885s-.0796-.0477-.0239-.2068c0,0,.4218-1.2733,1.138-1.4961,0,0,.2467-.016,.2229,.191,0,0-.1434,.1115-.1593,.2149,0,0-.0238,.0716,.0399,.0317,0,0,.3422-.3978,.4854-.2943,0,0,.3104,.1432,.1671,.2784,0,0-.0318,.1035,.0955,.0955,0,0,.5094-.1353,.4537,.5571,0,0-.3421,.9948-.9867,1.4563,0,0-.2707-.0159-.3263-.2944,0,0-.0079-.1989,.0239-.3104,0,0-.2706,.1832-.2945,.2627,0,0-.3262,.1273-.2068-.5332,0,0,.0796-.3184,.183-.5252,0,0,0-.0796-.0478-.0239,0,0-.4059,.6445-.5411,.7004l-.2228-.1035Z"/><path d="M30.8504,12.7854s.2387-.3023,.6207-.4854c0,0,.2864-.1512,.5331,.0318,0,0,.7958,.557,1.0982,1.0822,0,0,.0717,.3024-.366,.3024,0,0-.2785,0-.2627,.1354,0,0,.2388,.2148-.3819,.2068,0,0-.8676-.3979-1.2495-.8913,0,0-.1432-.1671,.008-.382Z"/><path d="M33.747,14.4167s-.4456-.4536-.7958-.6287c0,0-.3024,.0876-.2467,.3024,0,0,0,.1034-.0636,.1911,0,0-.04,.0795,.0158,.167,0,0,.4456,.6049,.7083,.5491,0,0,.2627-.0637,.382-.581Z"/><path d="M34.527,11.8225s-.1672-.0161-.3583,.3342l-.1511,.0398s-.382,.3979-.5013,.7561c0,0-.199,.4854-.0319,1.0504l.1593,.1195s.3183-.008,.4059-.1195c0,0-.0318-.7083-.1512-1.0743l.0796-.1194,.0795,.4934s.2865,.2545,.3661-.0398c0,0,.0876-.3183,.1591-.3979,0,0,.1671-.939-.0556-1.0425Z"/><path d="M27.1816,8.9497s.6288,.0876,1.4245,1.2175c0,0,.6445,.9471,.9628,.9471,0,0-.1033,.3342-.2466,.4775,0,0-1.1778,.5015-.7481,2.9445l-.0717,.0716,.1512,.0717s.5253,.4377,.6287,1.4483c0,0,.0796,1.2972-.7322,1.9497,0,0-.1193,.0478-.1193-.1591,0,0,.6049-1.886-.0636-2.8012,0,0-.0638-.0477-.0319,.0955,0,0,.1194,.7958-.1273,1.3448,0,0-.5173,1.337-.6844,2.3955,0,0-.1432,.2626-.1671,.1114,0,0,.1353-.5968,.1353-.7321,0,0,.2468-1.2972,.3501-1.8463,0,0,.3262-1.5837-.183-2.5466,0,0-.1115-.1671,.0317-.565,0,0,.0479-.1592-.0397-.2626,0,0-.1274-.7322,.2227-1.4166,0,0,.2945-.8912-.6127-2.459,0,0-.2069-.2228-.0796-.2865Z"/><path d="M27.109,26.66c3.9777-6.8123,4.9271-12.3069,4.9271-12.3069,.2228-.0955,.382,.2546,.382,.2546-.8945,4.3292-2.7164,8.4093-4.7142,11.892,0,0-.6514,.4984-.5948,.1603Z"/><path d="M25.7899,28.7896c-1.7794,2.7115-4.0401,5.5549-6.9005,8.2916,0,0-.8594,.7639-1.8144,.9868l-1.719,.3183s-1.4005,.7322-1.1459,1.2415c0,0,1.4643,.1591,3.2469-.382,0,0,.8595-.3821,2.1009-1.7509,0,0,3.3128-3.3538,6.6491-8.5361,0,0-.2092-.1688-.417-.1693Z"/><path d="M30.2216,15.9606s-.3978,2.1806-1.5438,2.5308c0,0-.8276,.3342-1.0186,.9867,0,0-1.6712,1.1142-4.4088-1.0345,0,0-.191-.9231-.4298-1.1937,0,0-.0794,.3183-.1749,.3979,0,0,.3183,.8594,.1432,1.0186,0,0,.6526,1.528,.2865,2.8649,0,0,.8914,.5252,.9709,.939,0,0,.1115,.1592,.3342,0,0,0,.3502-.2069,.6367-.2069,0,0,2.9445-.939,4.0427-2.0214,0,0,.5411-.7321,.6684-.8594h-.1112s-.4617,.6049-.796,.6367c0,0,.3343-.3184,.3821-.5412l-.0955,.0478s-.6685,.6684-1.0823,.6366c0,0-1.878,1.7031-3.5652,1.1777,0,0-.0317-.0795,.1433-.0795,0,0,2.8012-.3661,3.9471-1.8781,0,0,1.3052-.7481,1.7509-3.0558l-.0796-.3662Z"/><path d="M30.4445,18.173s-.4138,.8594-.6367,.9867c0,0-.4137,2.3396-5.0135,3.7085,0,0,1.0505,.7481,1.13,1.2892l.2546,.0795s1.0823-.2068,1.2893-.0317c0,0,.191,.0637,.2705,.6207,0,0,2.1646-3.8199,2.8649-6.4938,0,0,0-.3183-.1591-.1591Z"/><path d="M22.6853,21.3959s-1.6553-.358-3.2548,.8117l-.0159,.1194s-.6287,.39-.8515,.6207l-.0239,.0875s-.2228,.2389-.3104,.3662l-.0876,.1194s.7401-.5173,1.0505-.6287c0,0,.1353,.0636,.3501-.0478,0,0,1.0743-.4537,1.5598-.3899,0,0-1.0027,.7161-1.2812,1.4721,0,0,.0637,.1035,.0398,.1911l.016,.1193s.8038-1.4086,1.7586-1.7109c0,0-1.0982,1.2971-1.0186,2.4192,0,0,.0557,.3343,.3502,.3501,0,0,.2865,.0478,.4377-.4537,0,0,.4138-1.1697,1.0105-1.703,0,0,.764-.6843,.8198-.8276,0,0,.1512-.0796,.2547-.0318,0,0-.3582-.6446-1.0983-.2945,0,0,.0716-.3023,.0478-.382,0,0,.2466-.0716,.2466-.2069Z"/><path d="M23.1788,22.7011s-.7321,1.0665-.8754,1.2416c0,0-.6685,1.0902-.6287,1.8064,0,0-.0159,.358,.1989,.35,0,0,.1911-.0636,.2546-.0158l.0956-.0478s.5092,.2706,.9549,.2307c0,0,.5411,.0399,.6526,.1513,0,0,.4139-.4934,.4855-.5254,0,0-1.146-.9231-1.6951-.772,0,0,.1195-.6844,.024-.74,0,0,.5331-1.2095,.8515-1.4563,0,0-.0479-.2945-.3184-.2229Z"/><path d="M25.3672,25.1601s-1.3289,.5571-1.6233,1.4564c0,0,.0716,.573,.2545,.8436l.2627,.1592s.6526-.6127,.8833-.9789c0,0,.6765-.7958,1.1698-.8037,0,0-.4217-.5651-.947-.6765Z"/><path d="M26.0835,25.2637s.4933,.6446,.5332,.8515c0,0,.3104,.0476,.3899-.1035l.1513,.0876s.3342-.5332,.35-.6923c0,0,.0717-.6526-.0477-.8914,0,0-.6127,.215-.8037,.1512l-.0399-.1034s-.2148-.1115-.3421,.0159c0,0,.1272,.3741,.1272,.5889l-.2149-.1115-.1034,.2071Z"/><path d="M25.3036,28.5662s-.3343-.3104-.3978-.4456c0,0-.0876-1.1777,1.0504-1.7587,0,0,.4695-.1434,.8515,.4376l-.191,.0876,.1513,.2069s-.9632,.6764-1.4644,1.4722Z"/><path d="M28.7813,27.7147l.2944,.0079s-.183-.8833-.6366-1.2494l-.2866,.0079s-.1512,.0399-.0955,.3024l-.2466,.0717s-.1433,.0556-.1195,.2068c0,0,.2707,.2467,.3502,.374l-.016,.0955s-.1433-.2229-.2388-.2547l-.2944-.0078s-.0556,.1591-.0238,.3182c0,0,.549,.7083,.5888,1.2972,0,0,.1751-.0079,.2865-.1194,0,0,.2069-.4298-.0637-.939l.0717,.016s.2944,.3502,.3422,.5252l.2705,.0477s-.016-.4456-.183-.7003Z"/><path d="M27.0941,27.5237s-.8912,.1193-1.0425,.9231c0,0,.6207,1.0346,1.1937,1.0187,0,0,.4538,.016,.4855-.4616,0,0-.0318-.7481-.6367-1.4802Z"/><path d="M26.2267,29.2665l-.6923,1.0663s1.0664-.3104,1.5278-.5888l.008-.1195s-.5491-.0477-.8436-.358Z"/><path d="M22.6695,26.4493s.3899,.1751,.6605,.1274c0,0,.199,.1432,.2228,.2785,0,0,.2307,.8912,.5332,1.0982,0,0,.3979-.016,.589,.5013,0,0,.2466,.2308,.3819,.2468l.0318,.5729s-.5331,.8116-.8435,1.2494c0,0-.8277-.0239-1.0027-.0955,0,0-.6446-3.3504-.5731-3.9791Z"/><path d="M22.0248,26.3777s.2229,2.7216,.6208,4.0267l-.1832-.0397s-.4774-1.5997-.7083-4.0348c0,0,.215,.1274,.2706,.0478Z"/><path d="M26.768,30.2612s-.4378,.2149-.6209,.2388c0,0-.9628,2.459-2.5147,2.642,0,0-.2308,.2068,.1989,.2866,0,0,2.0452,0,2.8331-2.8491,0,0,.1909-.2626,.1035-.3183Z"/><path d="M16.2075,33.532c-.0478,.1115-.1194,.0317-.1194,.0317-.4536-.0955-.3023-.6684-.3023-.6684,.1034-.1989,.3342-.0876,.3342-.0876l.0557-.1273c.3024-.0398,.5491-.3183,.5491-.3183,2.5465-2.8887,5.6104-1.8542,5.6104-1.8542,.0795,.0159,.1591,.1432,.1591,.1432,.581-.0876,1.0664,.3024,1.0664,.3024,.1273,.1115-.0556,.1512-.0556,.1512-.4615-.0478-.772,.0556-.772,.0556-.4855,.1354-.931,1.4166-.931,1.4166-.1593,.2069-.3344-.1353-.3344-.1353,0-.4537-.2228-1.2494-.2228-1.2494-.0556-.2228-.175-.0399-.175-.0399-.5173,.8595-.3502,1.9815-.3502,1.9815,.1512,.2228,.0557,.3502,.0557,.3502-.1193,.2069-.1432,.4855-.1432,.4855-.0318,.1194-.2149-.1194-.2149-.1194-.0637-.0478-.2706-.5889-.2706-.5889-.4616-.3183-.2784-1.0505-.2784-1.0505,.0238-.1591-.0877-.0397-.0877-.0397-.2148,.3023-.1353,1.0504-.1353,1.0504-.1273,.1432-.3581,.7958-.3581,.7958-.1034,.1194-.2387-.3262-.2387-.3262-.008-.2069-.0877-.5013-.0877-.5013-.175-.2388-.2148-.6049-.2148-.6049-.9471,.1353-2.5307,.9152-2.5307,.9152,0,0-.0207,.0035-.008,.0318Z"/><path d="M15.5391,33.341s-.3423-.0318-.4536,.0715c0,0-.2627,.3184-.5491,.5253,0,0-.4298,.5491,.0955,1.5439,0,0,.947,1.4882,1.703,1.2494,0,0,.3343-.2467,.4537-.2467,0,0,.5014-.9071,.2546-1.3767,0,0,.2865,.0796,.3661,.0079,0,0-.2627-.2626-.2627-.3422,0,0-1.1141-.2068-1.2653-1.3767,0,0,.1114-.3978-.3422-.0556Z"/><path d="M15.5073,32.9352s-.3183-.0956-.5412,.374c0,0-.1909,.2148-.3421,.1511,0,0-.1115-.0238-.1354,.0637,0,0-.5968,1.4245-1.2176,2.1169,0,0-.1591,.1034,.0399,.2627,0,0,.7321,.7719,.8673,1.3766,0,0-.4059,1.0506-1.1061,1.0346,0,0-1.2573-.0557-.9232-2.093,0,0,.3661-1.3051,1.0267-1.9418,0,0,.7399-.8198,.7957-.9629,0,0,.0399-.1512,.2229-.1115,0,0,.3342,.0557,.3739-.0398,0,0,.1274-.3343,.4537-.4059,0,0,.39-.1512,.4855,.1751Z"/><path d="M19.0167,39.2936s-1.0106-.3899-2.3874,.0477c0,0-.1273,.1433-.0637,.3821,0,0-.1512,.0636-.4298,.0556l.191,.1115s1.5042,.4378,2.8171,.0239c0,0,.016-.4298-.1273-.6207Z"/><path d="M12.8731,34.1129s-.4695,.1115-.8594,1.2893c0,0-.7799,2.1566-.7481,2.8887,0,0-.3422,.0478-.3422-.2626,0,0,.3184-1.4245,.8594-2.6978,0,0,.5651-1.4085,1.0903-1.2176Z"/><path d="M31.475,18.7778s-.6564,2.5785-2.3038,5.7418c0,0,.6326,1.2176,1.1221,1.0504,0,0,.6565-.7997,1.9696-1.0743,0,0,1.2653-.3224,2.2323-.1194l.2387,.2268s-2.2442,0-3.8198,.7878c0,0-.2269,.3223-.5013,.406v.167l.3104,.012s1.1459,1.5877,1.8501,2.089c0,0,.6924,.3939,1.0147,.4417,0,0,.0956-.0716,.191,.1552,0,0,.0955,.4776,.7401,.382,0,0-.0238,.2746,.2984,.2746,0,0,1.2534,1.7547,3.0918,2.841,0,0,.9788,.5967,1.1697,.9311,0,0,.1791,.4895,.1194,.7759,0,0,.1792,.1552,.3582-.0837,0,0,.8475-1.1339,1.3609-1.3966l-.0478-.1313s-.6804-.0358-1.2056,.37c0,0-1.3729-.8594-2.8769-3.1633l-.2268-.0477s.4298-.573,.7401-.8117l.0478-.2507s-.9551,.3223-1.5877,.8953c0,0-.0956-.0478-.2268-.3224,0,0,.1671-1.0027,.9907-1.5996l-.2029-.0119s-.203-.0359-1.1579,.752c0,0-.382,.0358-.406,.1193,0,0-.561-.9787-.4895-1.9218,0,0-.4178-.0119-.3939,.7998,0,0-.4058-.1194-.9668-.8356,0,0-.7043-.6804-1.0028-.74,0,0,1.7189-.7044,4.5361-.6447l.1314-.0715s1.2056-.0836,1.5518-.0836l.0835-.0717s-1.3608-.0836-2.3874,0c0,0-.2746-.4297-.5491-.6565,0,0-2.3635-4.5122-3.796-5.1806Z"/><path d="M41.2874,32.0398s-.5731,1.1818-1.5997,1.3489l-.0835,.1552s.1551,.3343,.0955,.5252c0,0-.0597,.5014,.1671,.5252l.2149,.1791s.6087,.1672,1.4325-.74c0,0,.8713-.943,.4297-2.0532,0,0-.5371-.0836-.6564,.0597Z"/><path d="M42.2781,33.138s.2149,.4537,.2149,.6565c0,0,.4178,.5849,.4059,.7282,0,0-1.2773,.6684-1.2415,1.2891l-.0239,.0956h-.1074s-.0835,.5013,.6804,.7997c0,0,.2984,.0478,.4895-.2029,0,0,.6206-.6924,.931-.7878,0,0,.4776-.2746,.561-.4178,0,0,.0358-.1314-.0358-.2269,0,0-1.2176-1.6593-1.5875-1.8024,0,0-.2866-.2388-.2866-.1314Z"/><path d="M43.7224,36.7669s.1671,.7281,1.3251,.2149l-.1194,.203s-.8714,.573-1.3609-.2627c0,0,.0716-.1433,.1552-.1552Z"/><path d="M13.8599,39.1186s-.4138,.4456-.2546,.6048c0,0-9.7088,.0955-10.6319-10.6956,0,0-.7959-9.6134,7.4487-17.3486l-.0955,.2549S2.4641,18.9369,3.801,29.3461c0,0,.7321,8.7857,10.0589,9.7725Z"/><path d="M12.8413,33.8343s-.4776,.0638-.7003,.3502c0,0-4.9341-3.0558-5.0614-9.3586,0,0-.1273-5.6662,1.9737-9.2314v.2865s-1.8782,3.0877-1.5599,8.9449c0,0,.1274,5.0932,5.3479,9.0084Z"/></svg>